<?xml version="1.0" encoding="iso-8859-1"?>
<!-- Generator: Adobe Illustrator 16.0.3, SVG Export Plug-In . SVG Version: 6.00 Build 0)  -->
<!DOCTYPE svg PUBLIC "-//W3C//DTD SVG 1.1//EN" "http://www.w3.org/Graphics/SVG/1.1/DTD/svg11.dtd">
<svg version="1.1" id="&#x30EC;&#x30A4;&#x30E4;&#x30FC;_1"
	 xmlns="http://www.w3.org/2000/svg" xmlns:xlink="http://www.w3.org/1999/xlink" x="0px" y="0px" width="239.988px"
	 height="128.994px" viewBox="0 0 239.988 128.994" style="enable-background:new 0 0 239.988 128.994;" xml:space="preserve">
<g>
	<g>
		<defs>
			<rect id="SVGID_1_" x="10.818" y="9.409" width="103.564" height="86.75"/>
		</defs>
		<clipPath id="SVGID_2_">
			<use xlink:href="#SVGID_1_"  style="overflow:visible;"/>
		</clipPath>
		<circle style="clip-path:url(#SVGID_2_);fill:#FFFFFF;stroke:#0096FF;stroke-miterlimit:10;" cx="62.405" cy="60.641" r="50"/>
	</g>
	<g>
		<g>
			<path style="fill:none;stroke:#0096FF;stroke-miterlimit:10;" d="M12.6,95.355c7.142,0,7.142,6,14.283,6
				c7.143,0,7.143-6,14.285-6c7.141,0,7.141,6,14.281,6c7.143,0,7.143-6,14.286-6c7.141,0,7.141,6,14.281,6
				c7.146,0,7.146-6,14.292-6s7.146,6,14.292,6"/>
		</g>
		<g>
			<path style="fill:none;stroke:#0096FF;stroke-miterlimit:10;" d="M12.6,100.882c7.142,0,7.142,6,14.283,6
				c7.143,0,7.143-6,14.285-6c7.141,0,7.141,6,14.281,6c7.143,0,7.143-6,14.286-6c7.141,0,7.141,6,14.281,6
				c7.146,0,7.146-6,14.292-6s7.146,6,14.292,6"/>
		</g>
		<g>
			<path style="fill:none;stroke:#0096FF;stroke-miterlimit:10;" d="M12.6,106.409c7.142,0,7.142,6,14.283,6
				c7.143,0,7.143-6,14.285-6c7.141,0,7.141,6,14.281,6c7.143,0,7.143-6,14.286-6c7.141,0,7.141,6,14.281,6
				c7.146,0,7.146-6,14.292-6s7.146,6,14.292,6"/>
		</g>
	</g>
	
		<text transform="matrix(1 0 0 1 23.4502 68.3501)" style="fill:#0096FF; font-family:'KozGoPr6N-Regular-90ms-RKSJ-H'; font-size:29.5476;">HOGE</text>
	<text transform="matrix(1 0 0 1 28.0049 123.4087)" style="font-family:'KozGoPr6N-Regular-90ms-RKSJ-H'; font-size:12;">HOGE-IS-000</text>
</g>
<g>
	<rect x="123.39" y="13.909" style="fill:#0037FF;" width="100" height="91.5"/>
	<g>
		<path style="fill:#0037FF;" d="M140.266,119.409h-0.996v-4.365h-4.366v4.365h-0.995v-9.127h0.995v3.897h4.366v-3.897h0.996
			V119.409z"/>
		<path style="fill:#0037FF;" d="M149.613,114.755c0,3.214-1.799,4.797-3.958,4.797c-2.267,0-3.874-1.787-3.874-4.641
			c0-2.975,1.691-4.786,3.982-4.786C148.102,110.125,149.613,111.997,149.613,114.755z M142.825,114.887
			c0,1.943,1.007,3.838,2.866,3.838c1.883,0,2.878-1.835,2.878-3.922c0-1.835-0.899-3.85-2.854-3.85
			C143.7,110.954,142.825,112.944,142.825,114.887z"/>
		<path style="fill:#0037FF;" d="M157.641,119.037c-0.492,0.192-1.451,0.468-2.603,0.468c-3.586,0-4.438-2.674-4.438-4.605
			c0-2.782,1.811-4.713,4.677-4.713c0.876,0,1.655,0.168,2.111,0.384l-0.264,0.827c-0.444-0.204-1.02-0.372-1.871-0.372
			c-2.159,0-3.61,1.392-3.61,3.814c0,2.471,1.379,3.85,3.466,3.85c0.768,0,1.283-0.12,1.547-0.264v-2.927h-1.847v-0.804h2.831
			V119.037z"/>
		<path style="fill:#0037FF;" d="M164.23,119.409h-4.821v-9.139h4.617v0.839h-3.622v3.095h3.406v0.827h-3.406v3.538h3.826V119.409z"
			/>
		<path style="fill:#0037FF;" d="M169.786,111.397c-0.264-0.168-0.839-0.42-1.607-0.42c-1.271,0-1.751,0.78-1.751,1.439
			c0,0.899,0.551,1.355,1.775,1.871c1.475,0.624,2.23,1.379,2.23,2.687c0,1.451-1.055,2.566-3.022,2.566
			c-0.828,0-1.727-0.252-2.183-0.575l0.276-0.828c0.492,0.324,1.224,0.563,1.967,0.563c1.223,0,1.943-0.659,1.943-1.643
			c0-0.899-0.492-1.451-1.679-1.931c-1.379-0.516-2.315-1.319-2.315-2.579c0-1.392,1.127-2.41,2.794-2.41
			c0.864,0,1.523,0.216,1.871,0.432L169.786,111.397z"/>
	</g>
	<g>
		<path style="fill:#0037FF;" d="M178.472,117.328h-0.748v-2.898c0-0.802-0.288-1.495-1.134-1.495c-0.576,0-1.296,0.478-1.296,1.378
			v3.016h-0.747v-7.202h0.747v3.052h0.018c0.324-0.54,0.918-0.873,1.521-0.873s1.639,0.369,1.639,2.034V117.328z"/>
		<path style="fill:#0037FF;" d="M183.764,116.022c0,0.505,0.027,0.928,0.045,1.306h-0.675l-0.036-0.774h-0.027
			c-0.225,0.388-0.729,0.883-1.566,0.883c-0.738,0-1.611-0.424-1.611-2.116v-2.898h0.747v2.764c0,0.954,0.279,1.62,1.098,1.62
			c0.585,0,1.278-0.468,1.278-1.332v-3.052h0.748V116.022z"/>
		<path style="fill:#0037FF;" d="M189.227,112.413c-0.027,0.351-0.045,0.747-0.045,1.35v2.863c0,0.855-0.018,2.817-2.34,2.817
			c-0.558,0-1.17-0.135-1.54-0.387l0.198-0.585c0.315,0.188,0.792,0.369,1.377,0.369c0.9,0,1.558-0.478,1.558-1.773v-0.586h-0.018
			c-0.252,0.46-0.774,0.838-1.521,0.838c-1.17,0-2.007-1.035-2.007-2.413c0-1.701,1.062-2.602,2.125-2.602
			c0.837,0,1.278,0.45,1.485,0.847h0.018l0.036-0.738H189.227z M188.426,114.303c0-0.855-0.621-1.396-1.306-1.396
			c-0.864,0-1.467,0.765-1.467,1.953c0,1.044,0.504,1.863,1.458,1.863c0.558,0,1.314-0.423,1.314-1.44V114.303z"/>
		<path style="fill:#0037FF;" d="M193.871,116.158c0,0.404,0.009,0.828,0.072,1.17h-0.685l-0.072-0.63h-0.027
			c-0.252,0.387-0.756,0.738-1.449,0.738c-0.936,0-1.432-0.685-1.432-1.396c0-1.18,1.026-1.818,2.845-1.81
			c0-0.414,0-1.351-1.117-1.351c-0.423,0-0.864,0.117-1.197,0.351l-0.18-0.513c0.396-0.261,0.945-0.414,1.494-0.414
			c1.387,0,1.747,0.981,1.747,1.953V116.158z M193.132,114.78c-0.927,0-2.088,0.135-2.088,1.171c0,0.63,0.396,0.909,0.846,0.909
			c0.729,0,1.242-0.559,1.242-1.152V114.78z"/>
		<path style="fill:#0037FF;" d="M199.235,117.328h-0.748v-2.898c0-0.802-0.288-1.495-1.134-1.495c-0.576,0-1.296,0.478-1.296,1.378
			v3.016h-0.747v-7.202h0.747v3.052h0.018c0.324-0.54,0.918-0.873,1.521-0.873s1.639,0.369,1.639,2.034V117.328z"/>
		<path style="fill:#0037FF;" d="M204.527,116.022c0,0.505,0.027,0.928,0.045,1.306h-0.675l-0.036-0.774h-0.027
			c-0.225,0.388-0.729,0.883-1.566,0.883c-0.738,0-1.611-0.424-1.611-2.116v-2.898h0.747v2.764c0,0.954,0.279,1.62,1.098,1.62
			c0.585,0,1.278-0.468,1.278-1.332v-3.052h0.748V116.022z"/>
		<path style="fill:#0037FF;" d="M209.99,112.413c-0.027,0.351-0.045,0.747-0.045,1.35v2.863c0,0.855-0.018,2.817-2.34,2.817
			c-0.558,0-1.17-0.135-1.54-0.387l0.198-0.585c0.315,0.188,0.792,0.369,1.377,0.369c0.9,0,1.558-0.478,1.558-1.773v-0.586h-0.018
			c-0.252,0.46-0.774,0.838-1.521,0.838c-1.17,0-2.007-1.035-2.007-2.413c0-1.701,1.062-2.602,2.125-2.602
			c0.837,0,1.278,0.45,1.485,0.847h0.018l0.036-0.738H209.99z M209.188,114.303c0-0.855-0.621-1.396-1.306-1.396
			c-0.864,0-1.467,0.765-1.467,1.953c0,1.044,0.504,1.863,1.458,1.863c0.558,0,1.314-0.423,1.314-1.44V114.303z"/>
		<path style="fill:#0037FF;" d="M214.633,116.158c0,0.404,0.009,0.828,0.072,1.17h-0.685l-0.072-0.63h-0.027
			c-0.252,0.387-0.756,0.738-1.449,0.738c-0.936,0-1.432-0.685-1.432-1.396c0-1.18,1.026-1.818,2.845-1.81
			c0-0.414,0-1.351-1.117-1.351c-0.423,0-0.864,0.117-1.197,0.351l-0.18-0.513c0.396-0.261,0.945-0.414,1.494-0.414
			c1.387,0,1.747,0.981,1.747,1.953V116.158z M213.895,114.78c-0.927,0-2.088,0.135-2.088,1.171c0,0.63,0.396,0.909,0.846,0.909
			c0.729,0,1.242-0.559,1.242-1.152V114.78z"/>
	</g>
	<circle style="fill:#FFFFFF;" cx="171.831" cy="32.354" r="10"/>
	<path style="fill:#FFFFFF;" d="M145.108,56.997c-2.043,8.654,44.575,14.042,29.369,14.042c-15.207,0-41.483-5.088-41.483-14.042
		s14.163-14.644,29.369-14.644C179.433,42.353,147.494,46.89,145.108,56.997z"/>
	<path style="fill:#FFFFFF;" d="M198.919,61.375c2.799-10.548-38.531-15.325-17.706-15.325c20.825,0,34.297,4.413,34.297,15.325
		c0,10.914-35.059,17.848-55.883,17.848C136.249,79.222,195.651,73.693,198.919,61.375z"/>
	<path style="fill:#FFFFFF;" d="M178.12,56.102c0,14.99-2.621,45.781-6.366,45.781c-3.743,0-6.582-30.247-6.582-45.237
		s2.729-13.736,6.474-13.736S178.12,41.112,178.12,56.102z"/>
</g>
</svg>
