<?xml version="1.0" encoding="iso-8859-1"?>
<!-- Generator: Adobe Illustrator 16.0.3, SVG Export Plug-In . SVG Version: 6.00 Build 0)  -->
<!DOCTYPE svg PUBLIC "-//W3C//DTD SVG 1.1//EN" "http://www.w3.org/Graphics/SVG/1.1/DTD/svg11.dtd">
<svg version="1.1" id="&#x30EC;&#x30A4;&#x30E4;&#x30FC;_1"
	 xmlns="http://www.w3.org/2000/svg" xmlns:xlink="http://www.w3.org/1999/xlink" x="0px" y="0px" width="378px" height="362px"
	 viewBox="0 0 378 362" style="enable-background:new 0 0 378 362;" xml:space="preserve">
<g>
	<g>
		<path style="fill:#0018F9;" d="M291.187,73.242c-159.964-9.941-118.174,5.536-132.797,36.855
			c-7.043,15.085-132.796-16.5-132.796-36.855c0-20.354,59.469-38.3,132.796-36.855C298.756,39.152,311.501,74.504,291.187,73.242z"
			/>
		<linearGradient id="SVGID_1_" gradientUnits="userSpaceOnUse" x1="81.9648" y1="56.4043" x2="77.9865" y2="44.1604">
			<stop  offset="0.0221" style="stop-color:#0025FF"/>
			<stop  offset="1" style="stop-color:#FFFFFF"/>
		</linearGradient>
		<path style="fill:url(#SVGID_1_);" d="M119.078,43.496c-33.813,6.031-38.502,9.448-51.247,15.613
			c-25.666,12.414-26.589,9.853-27.506,3.583c-0.917-6.27,17.943-13.311,40.251-18.173
			C124.434,34.959,123.806,42.653,119.078,43.496z"/>
		<g>
			<path style="fill:#0025FF;" d="M174.26,87.27l10.358-0.118l1.671-8.046l4.566,1.065l-1.226,6.862h9.355v4.378l-10.246,0.237
				l-2.45,14.315l-5.235-0.946l2.562-12.897l-9.467,1.184L174.26,87.27z"/>
			<path style="fill:#0025FF;" d="M206.335,79.815l-0.557,7.573l15.258-2.958l1.336,4.377l-16.817,3.904l-0.223,7.573l18.154-1.893
				l0.111,5.679c-8.316,0.787-14.22,1.183-17.708,1.183c-1.634,0-2.934-0.354-3.898-1.064c-0.818-0.553-1.337-1.459-1.56-2.722
				c-0.15-0.787-0.186-1.97-0.111-3.549l0.891-18.221L206.335,79.815z M218.475,79.105l2.116,4.732l-3.007,0.829l-1.559-4.733
				L218.475,79.105z M221.927,78.514l2.228,4.496l-2.784,0.828l-1.895-4.732L221.927,78.514z"/>
			<path style="fill:#0025FF;" d="M225.157,87.27l10.357-0.118l1.671-8.046l4.566,1.065l-1.226,6.862h9.355v4.378l-10.246,0.237
				l-2.45,14.315l-5.235-0.946l2.562-12.897l-9.467,1.184L225.157,87.27z"/>
			<path style="fill:#0025FF;" d="M257.232,79.815l-0.557,7.573l15.258-2.958l1.337,4.377l-16.818,3.904l-0.222,7.573l18.154-1.893
				l0.111,5.679c-8.316,0.787-14.22,1.183-17.708,1.183c-1.635,0-2.935-0.354-3.898-1.064c-0.818-0.553-1.336-1.459-1.56-2.722
				c-0.149-0.787-0.187-1.97-0.11-3.549l0.89-18.221L257.232,79.815z M269.372,79.105l2.117,4.732l-3.007,0.829l-1.559-4.733
				L269.372,79.105z M272.824,78.514l2.228,4.496l-2.784,0.828l-1.894-4.732L272.824,78.514z"/>
			<path style="fill:#0025FF;" d="M284.853,80.762c2.3-0.787,4.121-1.302,5.458-1.538c2.153-0.394,4.046-0.394,5.68,0
				c1.855,0.473,2.969,1.697,3.341,3.668c0.223,1.105,0.112,2.288-0.334,3.548c-0.446,1.264-0.93,2.367-1.448,3.313l-1.56,2.603
				l-4.455,7.69c1.114-0.078,2.078-0.196,2.896-0.354c0.891-0.157,2.264-0.512,4.121-1.065l-0.334,6.507
				c-5.643,0.947-9.616,1.341-11.917,1.184c-1.041-0.079-1.746-0.435-2.117-1.065c-0.445-0.789-0.484-1.813-0.111-3.076
				c0.223-0.868,0.63-1.775,1.225-2.722l2.784-4.496c1.187-1.734,2.301-3.432,3.341-5.087c0.296-0.474,0.631-1.26,1.002-2.367
				c0.296-0.867,0.334-1.458,0.111-1.775c-0.222-0.393-0.632-0.551-1.225-0.473c-0.596,0.08-1.486,0.396-2.673,0.947
				c-0.966,0.473-2.302,1.262-4.009,2.366L284.853,80.762z"/>
			<path style="fill:#0025FF;" d="M302.004,96.379c-0.15-3.549,0.296-6.901,1.336-10.057c1.187-3.626,2.896-5.955,5.123-6.98
				c1.188-0.551,2.413-0.669,3.676-0.355c1.632,0.396,2.932,1.262,3.898,2.603c1.039,1.419,1.707,3.472,2.004,6.153
				c0.295,2.603,0.223,5.167-0.222,7.69c-0.669,3.787-1.894,6.667-3.676,8.637c-1.188,1.34-2.525,2.089-4.01,2.248
				c-1.263,0.157-2.6-0.159-4.01-0.946c-1.188-0.71-2.154-1.854-2.896-3.432C302.486,100.364,302.077,98.51,302.004,96.379z
				 M309.243,100.403c0.668,0,1.261-0.355,1.782-1.065c0.519-0.709,1.002-1.97,1.448-3.786c0.295-1.183,0.445-3.035,0.445-5.561
				c0-2.287-0.262-3.826-0.78-4.614c-0.372-0.551-0.891-0.829-1.56-0.829c-0.965,0-1.708,1.026-2.228,3.076
				c-0.891,3.55-1.335,6.39-1.335,8.519C307.016,98.982,307.756,100.403,309.243,100.403z"/>
			<path style="fill:#0025FF;" d="M325.503,106.318l2.004-19.996l-2.562,0.829l0.668-7.572l4.232-0.71
				c1.708-0.236,2.746,0.316,3.119,1.657c0.148,0.473,0.185,1.538,0.111,3.194c-0.075,1.5-0.261,3.511-0.556,6.035
				c-0.447,4.182-0.854,9.466-1.226,15.855L325.503,106.318z"/>
			<path style="fill:#0025FF;" d="M342.654,92.12c-0.668-0.867-1.189-1.655-1.559-2.366c-0.595-1.104-0.891-2.248-0.891-3.432
				c0-2.76,1.039-4.928,3.118-6.507c0.964-0.709,2.228-1.142,3.787-1.301c2.078-0.157,3.748,0.16,5.012,0.946
				c1.707,1.106,2.562,2.919,2.562,5.443c0,0.946-0.149,1.815-0.446,2.603c-0.297,0.869-0.706,1.618-1.225,2.248
				c-0.373,0.473-0.818,0.987-1.336,1.539c1.632,1.105,2.672,2.366,3.119,3.786c0.37,1.026,0.445,2.17,0.223,3.432
				c-0.15,1.183-0.521,2.289-1.114,3.313c-1.041,1.657-2.414,2.878-4.121,3.668c-1.709,0.709-3.416,0.906-5.123,0.591
				c-1.188-0.236-2.228-0.671-3.118-1.301c-1.337-0.947-2.154-2.248-2.45-3.905c-0.298-1.497-0.15-2.997,0.445-4.496
				C340.055,94.882,341.095,93.462,342.654,92.12z M344.882,97.8c-0.075,0.946,0.185,1.579,0.78,1.893
				c0.446,0.236,0.891,0.315,1.336,0.236c0.593-0.078,1.114-0.394,1.56-0.947c0.519-0.55,0.705-1.221,0.557-2.011
				c-0.222-1.34-0.929-1.893-2.116-1.656C345.735,95.552,345.03,96.379,344.882,97.8z M346.998,87.979
				c1.04,0,1.708-0.591,2.004-1.775c0.224-0.71,0.185-1.341-0.11-1.894c-0.298-0.393-0.668-0.63-1.114-0.71
				c-0.52-0.078-0.965,0-1.336,0.237c-0.445,0.316-0.78,0.908-1.003,1.775c-0.149,0.709-0.075,1.301,0.223,1.775
				C345.957,87.783,346.403,87.979,346.998,87.979z"/>
		</g>
	</g>
	<g>
		<g>
			<circle style="fill:#0025FF;" cx="63.698" cy="193.691" r="38.676"/>
			<circle style="fill:#00F9FF;" cx="129.799" cy="193.691" r="38.675"/>
			<path style="fill:#FFFFFF;" d="M45.838,189.935l3.092-26.025l12.111,0.516l-2.577,18.553c5.322-2.746,9.875-3.864,13.656-3.35
				c3.092,0.346,5.668,1.635,7.73,3.865c2.061,2.234,3.092,4.984,3.092,8.245l0.515,25.252l-13.141-0.257l0.515-15.977
				c0.169-3.607,0.084-6.184-0.257-7.729c-0.516-2.231-1.462-3.519-2.834-3.866c-1.893-0.515-4.211,0.689-6.958,3.608
				c-1.546,1.72-2.665,3.438-3.35,5.153c-0.515,1.376-0.862,3.35-1.031,5.926v13.142l-13.657,0.516L45.838,189.935z"/>
			<path style="fill:#FFFFFF;" d="M137.513,170.675l11.338,1.03c-1.031,9.449-2.062,18.126-3.092,26.025
				c-0.862,5.668-2.666,9.879-5.411,12.626c-2.923,2.746-7.73,4.55-14.43,5.41c-3.438,0.344-8.761,0.517-15.975,0.517l1.288-6.958
				c3.261,0.17,6.011,0.17,8.246,0c2.577-0.174,4.723-0.604,6.441-1.288c2.23-1.031,4.034-2.835,5.412-5.412
				c-3.092,2.577-6.015,4.039-8.761,4.381c-4.296,0.688-7.646,0.089-10.049-1.804c-4.123-2.919-5.927-7.472-5.412-13.656
				c0.516-5.495,2.404-10.307,5.669-14.431c2.919-3.606,6.442-5.753,10.564-6.44c2.577-0.343,5.154-0.17,7.73,0.515
				c1.546,0.516,3.607,1.546,6.184,3.093L137.513,170.675z M124.113,198.503c4.639,0.173,7.988-2.318,10.049-7.472
				c2.404-5.839,2.231-9.619-0.515-11.338c-1.719-1.031-3.522-1.2-5.411-0.516c-1.546,0.516-2.923,1.461-4.123,2.834
				c-2.407,2.923-3.865,6.1-4.38,9.534C119.218,196.015,120.675,198.334,124.113,198.503z"/>
		</g>
		<g>
			<path style="fill:#515151;" d="M178.015,188.97l7.846,3.198c-2.296,5.066-3.702,8.396-4.21,9.995
				c-1.277,3.467-2.362,6.665-3.253,9.595l-8.42-3.598L178.015,188.97z M188.158,178.776l0.766-10.595l8.229,0.4l-0.574,10.194
				h17.032v7.596l-17.415-0.2v27.185l-8.994-0.2l0.765-26.784l-17.032,1.599v-8.795L188.158,178.776z M205.572,189.171l8.038,19.188
				l-8.42,2.999l-7.463-19.79L205.572,189.171z"/>
			<path style="fill:#515151;" d="M225.665,168.382l7.463,2.599l-2.679,7.995l28.514-0.199v7.596l-18.946,0.199l6.315,2.999
				l-8.42,23.586l-9.186-2.798l9.951-23.587l-11.099,0.6l-2.87,10.395l-8.995-2.799L225.665,168.382z M250.926,168.781l2.871,8.595
				l-4.784,1.001l-2.679-8.396L250.926,168.781z M256.092,167.582l3.636,8.195l-4.593,1.599l-3.253-8.794L256.092,167.582z"/>
			<path style="fill:#515151;" d="M269.68,177.776l-8.037,0.8v-6.597l8.42-0.399l0.191-4.798l6.698-0.2l-0.191,4.998l8.229-0.2
				l-0.191,5.597l-8.42,0.399v1.6c2.422,0,4.082,0.135,4.976,0.4c1.531,0.668,2.613,1.998,3.253,3.997l23.346-0.399l0.191,6.396
				l-12.439,0.4l-1.722,6.396l-1.722,9.395l5.933-1.798l-2.871-9.596l6.89-1.398l5.932,20.188l-7.081,1.999l-0.957-4.398l-4.784,1.4
				c-1.276,0.399-2.487,0.799-3.635,1.198c-1.66,0.532-2.999,0.731-4.019,0.6c-1.148-0.134-2.042-0.799-2.679-1.998
				c-0.511-0.935-0.64-1.934-0.382-2.998l3.827-18.19l-3.636,0.2l0.191,6.796l-8.611,0.399v2.799h8.037v5.597l-8.037,0.399
				l0.192,8.196l-7.655,0.2l0.192-7.796l-7.846,0.6l0.191-6.396l8.038-0.399v-2.399l-8.038,0.799l1.148-19.788l7.081-0.6V177.776z
				 M269.488,185.973v-1.601l-1.531,0.2v1.4H269.488z M269.488,192.969v-1.8h-1.531v1.999L269.488,192.969z M278.292,185.973v-2.199
				h-1.914l-0.191,2.199H278.292z M278.292,192.769v-2.199l-2.105-0.2v2.399H278.292z M287.094,169.78h19.711l-0.191,6.197
				l-16.075,0.6l-4.019,0.399L287.094,169.78z"/>
			<path style="fill:#515151;" d="M312.354,201.164l0.574-27.586l-2.488,0.6v-6.195c2.679-0.4,5.167-0.666,7.463-0.8
				c2.55-0.266,6.187-0.332,10.908-0.199l0.191,5.196h-2.105l-0.382,12.992h2.296l0.957-6.795l-2.871,0.399l0.192-5.598l5.549-0.399
				l0.192-5.796l0.382-0.201h6.124l-0.192,5.598l2.679-0.2v-5.598l6.124,0.2v9.994l0.574,7.396l8.42-0.2l0.574,0.2l-0.192,5.797
				l-8.229-0.399l0.574,3.398l1.148-2.199l0.191-0.2l5.359,3.198l-0.766,1.799l-3.444,5.997c-0.257,0.533-0.449,1.068-0.574,1.599
				c0,0.399,0.191,1,0.574,1.8l1.339-1.6l0.383-0.4l3.636,5.397c-0.766,1.864-1.406,3.198-1.914,3.998
				c-0.894,1.599-1.913,2.53-3.062,2.799c-1.022,0.265-2.042,0-3.062-0.801c-0.64-0.533-1.468-1.468-2.488-2.798l-1.914,3.798
				c-1.914-0.534-4.019-1.268-6.315-2.199l-0.191-0.199l1.34-2.199l-11.674,1.6l0.191-10.395l-2.105,0.8v12.793H320.2v-10.194
				l-8.611,3.798l-1.148-6.996L312.354,201.164z M320.965,177.977l0.383-5.397l-3.062,0.399v5.198L320.965,177.977z M320.583,188.17
				l0.191-4.797l-2.488,0.4v4.597L320.583,188.17z M320.391,198.765l0.192-5.196l-2.297,0.199v5.396L320.391,198.765z
				 M327.664,196.166l0.957,3.198l0.191-7.396l0.191-0.399l3.062-0.399c1.785-0.266,3.253-0.331,4.401-0.2
				c1.657,0.134,2.934,0.669,3.828,1.599c1.019,1.068,1.593,3.198,1.722,6.397c0.125,1.867,0.125,4.397,0,7.596l2.487-3.998
				l-1.722-12.792l-16.458,1.398v5.397L327.664,196.166z M333.596,206.561l2.87-0.4v-2.397l-2.87,0.199l-0.191,2.398
				L333.596,206.561z M336.466,198.765l-0.191-2.799l-2.488,0.4l-0.191,2.798L336.466,198.765z M335.701,184.572l0.957-6.596h-1.531
				l-0.766,6.596H335.701z M342.207,184.572l-0.383-6.996l-1.148,6.996H342.207z M348.713,178.177
				c-0.257-1.2-0.128-2.33,0.383-3.398c0.383-0.8,1.02-1.399,1.914-1.8c0.891-0.399,1.848-0.465,2.871-0.199
				c1.531,0.399,2.488,1.199,2.871,2.398c0.383,1.199,0.317,2.398-0.191,3.599c-0.383,1.333-1.148,2.133-2.296,2.397
				c-1.148,0.535-2.296,0.469-3.445-0.199C349.796,180.309,349.096,179.376,348.713,178.177z"/>
		</g>
	</g>
	<g>
		<path style="fill:#425CC6;" d="M65.38,314.633c-1.784,2.553-4.014,4.682-6.689,6.384c-4.313,2.795-9.365,3.83-15.162,3.101
			c-3.271-0.365-6.17-1.277-8.696-2.736c-2.975-1.701-5.205-3.768-6.689-6.201c-2.083-3.402-3.122-6.748-3.122-10.031
			c0-7.538,3.045-13.799,9.142-18.786c3.863-3.161,8.918-4.561,15.162-4.195c3.714,0.365,6.985,1.582,9.811,3.647
			c3.268,2.435,5.274,5.412,6.02,8.938c0.742,3.163,0.592,6.264-0.446,9.302c-1.042,3.163-2.826,5.776-5.352,7.843
			c-3.271,2.676-6.393,3.711-9.364,3.101c-1.934-0.364-2.826-1.884-2.676-4.56c-1.191,1.459-2.083,2.371-2.676,2.736
			c-1.933,1.581-3.867,2.129-5.797,1.641c-2.676-0.606-4.236-2.188-4.682-4.741c-0.446-2.309-0.077-5.107,1.115-8.391
			c1.038-2.796,2.822-5.227,5.351-7.296c2.376-1.943,4.829-2.613,7.358-2.006c2.08,0.487,3.417,1.824,4.013,4.013l1.784-3.83h4.236
			l-5.128,13.497c-0.596,1.704-0.892,3.346-0.892,4.924c0,1.095,0.52,1.642,1.561,1.642c1.188,0,2.526-0.606,4.013-1.823
			c2.526-2.066,4.16-4.378,4.905-6.932c0.892-2.918,1.188-5.591,0.892-8.024c-0.746-4.497-3.345-7.843-7.804-10.032
			c-2.826-1.336-5.874-1.943-9.142-1.823c-3.867,0.245-7.062,1.399-9.588,3.465c-3.271,2.677-5.351,6.265-6.243,10.762
			c-1.487,7.295-0.892,12.89,1.784,16.779c2.08,3.041,4.606,5.107,7.581,6.201c2.972,1.095,6.316,1.46,10.034,1.095
			c5.351-0.487,10.033-3.402,14.047-8.755L65.38,314.633z M47.32,293.84c-0.892-0.119-1.71,0.123-2.453,0.729
			c-0.892,0.729-1.784,1.887-2.676,3.466c-0.892,1.704-1.784,3.465-2.675,5.289c-1.338,2.799-2.007,5.17-2.007,7.113
			c0,0.975,0.369,1.764,1.115,2.371c0.742,0.61,1.784,0.792,3.122,0.547c1.338-0.364,2.526-1.154,3.567-2.371
			c0.892-1.094,1.784-2.553,2.676-4.377c2.08-4.013,2.972-7.051,2.676-9.119C50.365,295.299,49.25,294.085,47.32,293.84z"/>
		<path style="fill:#425CC6;" d="M75.84,320.469H62.685v-1.459c1.338,0,2.376-0.302,3.122-0.912
			c0.592-0.484,0.892-1.214,0.892-2.188v-24.44c0-1.459-0.299-2.431-0.892-2.918c-0.596-0.484-1.638-0.729-3.122-0.729v-1.277
			c1.93,0,3.491-0.119,4.682-0.364c1.188-0.242,2.749-0.729,4.683-1.459v17.145c2.229-3.402,4.978-5.107,8.25-5.107
			c2.376,0,4.31,0.61,5.797,1.824c1.634,1.34,2.453,3.83,2.453,7.479v9.849c0,0.975,0.296,1.704,0.892,2.188
			c0.742,0.61,1.707,0.912,2.899,0.912v1.459H79.185v-1.459c1.338,0,2.376-0.302,3.122-0.912c0.592-0.484,0.892-1.214,0.892-2.188
			v-11.126c0-3.402-1.487-5.106-4.459-5.106c-1.191,0-2.379,0.487-3.567,1.459c-1.638,1.339-2.676,3.283-3.122,5.836v9.12
			c0,0.975,0.296,1.704,0.892,2.188c0.592,0.487,1.261,0.729,2.007,0.729h0.892V320.469z"/>
		<path style="fill:#425CC6;" d="M103.022,321.198c-2.975,0-5.428-0.792-7.358-2.371c-3.122-2.553-4.682-5.836-4.682-9.849
			c0-4.133,1.561-7.479,4.682-10.031c1.93-1.579,4.383-2.371,7.358-2.371c2.972,0,5.424,0.792,7.358,2.371
			c3.122,2.553,4.682,5.898,4.682,10.031c0,4.013-1.561,7.296-4.682,9.849C108.447,320.406,105.994,321.198,103.022,321.198z
			 M97.225,308.979c0,4.987,0.892,8.207,2.676,9.667c1.038,0.852,2.08,1.276,3.122,1.276c1.038,0,2.08-0.425,3.122-1.276
			c1.784-1.46,2.675-4.68,2.675-9.667c0-4.984-0.892-8.208-2.675-9.667c-1.042-0.849-2.083-1.276-3.122-1.276
			c-1.042,0-2.083,0.428-3.122,1.276C98.117,300.771,97.225,303.994,97.225,308.979z"/>
		<path style="fill:#425CC6;" d="M135.333,299.677c1.038,1.459,1.337,3.223,0.892,5.289c-0.892,2.676-3.198,4.317-6.912,4.925
			c-2.379,0.245-4.682,0.122-6.912-0.365c-1.934,1.582-1.86,2.554,0.223,2.919c1.188,0.122,2.526,0.244,4.014,0.364
			c4.31,0.365,6.985,0.61,8.027,0.729c3.417,0.487,5.128,2.371,5.128,5.654c0,1.824-0.818,3.402-2.453,4.742
			c-1.934,1.579-5.351,2.371-10.256,2.371c-2.529,0-4.832-0.305-6.912-0.912c-1.637-0.487-2.752-1.276-3.344-2.371
			c-0.596-1.095-0.669-2.129-0.223-3.101c0.592-1.214,1.561-2.188,2.898-2.918c-1.637-0.972-2.453-2.249-2.453-3.83
			c0-0.973,0.446-1.824,1.338-2.554c0.742-0.607,1.634-1.154,2.676-1.642c-0.746-0.365-1.488-0.85-2.229-1.459
			c-1.338-1.095-2.007-2.491-2.007-4.195c0-1.943,0.892-3.647,2.675-5.106c2.08-1.702,5.275-2.309,9.588-1.824
			c2.08,0.245,3.863,0.912,5.351,2.006c1.93-1.336,3.567-2.006,4.905-2.006s2.453,0.364,3.345,1.095
			c0.742,0.609,1.115,1.339,1.115,2.188c0,0.975-0.3,1.704-0.892,2.188c-0.596,0.487-1.265,0.729-2.006,0.729
			c-1.042,0-1.861-0.242-2.453-0.729c-1.042-0.85-1.265-2.066-0.669-3.647C136.744,298.463,135.925,298.947,135.333,299.677z
			 M124.407,317.551c-1.784,0-3.048,0.305-3.79,0.912c-0.746,0.609-1.115,1.399-1.115,2.371c0,1.214,0.446,2.126,1.338,2.735
			c1.484,0.972,3.567,1.46,6.243,1.46c2.526,0,4.533-0.365,6.02-1.095c1.484-0.729,2.23-1.704,2.23-2.918
			c0-1.46-0.819-2.309-2.453-2.554L124.407,317.551z M123.07,302.96c0,3.77,1.188,5.653,3.567,5.653
			c2.376,0,3.567-1.884,3.567-5.653c0-3.648-1.191-5.472-3.567-5.472C124.258,297.488,123.07,299.312,123.07,302.96z"/>
		<path style="fill:#425CC6;" d="M164.745,313.721c-1.338,2.312-2.676,4.013-4.014,5.106c-1.784,1.46-4.013,2.189-6.689,2.189
			c-2.825,0-5.205-0.793-7.135-2.371c-3.421-2.796-4.682-7.113-3.791-12.95c0.592-2.796,2.007-5.106,4.236-6.931
			c1.784-1.459,4.014-2.188,6.689-2.188c2.676,0,4.905,0.729,6.689,2.188c2.23,1.824,3.568,5.106,4.014,9.849h-15.608
			c0,2.069,0.146,3.648,0.446,4.742c1.038,3.648,3.045,5.472,6.02,5.472c2.972,0,5.498-2.006,7.581-6.019L164.745,313.721z
			 M158.502,307.154c0-2.554-0.3-4.619-0.892-6.201c-0.746-1.943-1.934-2.918-3.568-2.918c-1.637,0-2.825,0.975-3.567,2.918
			c-0.746,2.069-1.191,4.136-1.338,6.201H158.502z"/>
		<path style="fill:#1F3AAD;" d="M182.492,302.725h-3.802v-0.516c0.387,0,0.687-0.106,0.902-0.322
			c0.171-0.171,0.258-0.429,0.258-0.773v-8.635c0-0.515-0.087-0.858-0.258-1.03c-0.172-0.172-0.474-0.258-0.902-0.258v-0.451
			c0.558,0,1.009-0.042,1.354-0.129c0.343-0.086,0.794-0.258,1.354-0.516v6.058c0.644-1.203,1.438-1.805,2.384-1.805
			c0.687,0,1.245,0.216,1.676,0.645c0.472,0.473,0.708,1.353,0.708,2.642v3.479c0,0.345,0.086,0.603,0.258,0.773
			c0.215,0.216,0.494,0.322,0.838,0.322v0.516h-3.802v-0.516c0.387,0,0.687-0.106,0.902-0.322c0.171-0.171,0.258-0.429,0.258-0.773
			v-3.931c0-1.202-0.43-1.804-1.289-1.804c-0.345,0-0.688,0.172-1.031,0.516c-0.473,0.473-0.772,1.159-0.901,2.062v3.222
			c0,0.345,0.085,0.603,0.257,0.773c0.172,0.172,0.365,0.258,0.58,0.258h0.258V302.725z"/>
		<path style="fill:#1F3AAD;" d="M190.348,302.982c-0.86,0-1.569-0.28-2.127-0.838c-0.902-0.902-1.353-2.062-1.353-3.479
			c0-1.46,0.45-2.642,1.353-3.544c0.558-0.558,1.267-0.838,2.127-0.838c0.858,0,1.567,0.28,2.126,0.838
			c0.902,0.902,1.354,2.084,1.354,3.544c0,1.418-0.451,2.577-1.354,3.479C191.916,302.702,191.207,302.982,190.348,302.982z
			 M188.672,298.665c0,1.762,0.258,2.899,0.773,3.415c0.3,0.301,0.601,0.451,0.902,0.451c0.3,0,0.601-0.15,0.901-0.451
			c0.516-0.516,0.773-1.653,0.773-3.415c0-1.761-0.258-2.899-0.773-3.415c-0.301-0.301-0.602-0.451-0.901-0.451
			c-0.302,0-0.603,0.15-0.902,0.451C188.93,295.766,188.672,296.904,188.672,298.665z"/>
		<path style="fill:#1F3AAD;" d="M199.686,295.379c0.3,0.516,0.387,1.139,0.258,1.868c-0.258,0.945-0.925,1.525-1.998,1.74
			c-0.688,0.087-1.354,0.043-1.997-0.129c-0.56,0.559-0.538,0.902,0.064,1.031c0.343,0.043,0.729,0.086,1.159,0.129
			c1.246,0.129,2.019,0.215,2.32,0.258c0.987,0.172,1.481,0.837,1.481,1.997c0,0.645-0.236,1.202-0.708,1.676
			c-0.56,0.558-1.547,0.837-2.965,0.837c-0.73,0-1.396-0.107-1.997-0.321c-0.474-0.173-0.796-0.451-0.967-0.838
			c-0.172-0.387-0.193-0.752-0.064-1.096c0.171-0.429,0.451-0.773,0.838-1.031c-0.474-0.343-0.709-0.794-0.709-1.353
			c0-0.344,0.129-0.645,0.387-0.902c0.214-0.215,0.472-0.408,0.773-0.58c-0.216-0.129-0.431-0.3-0.645-0.516
			c-0.387-0.387-0.58-0.88-0.58-1.482c0-0.687,0.258-1.288,0.773-1.804c0.601-0.602,1.524-0.815,2.771-0.645
			c0.602,0.087,1.117,0.322,1.547,0.709c0.558-0.473,1.031-0.709,1.417-0.709c0.387,0,0.709,0.129,0.967,0.387
			c0.215,0.216,0.322,0.473,0.322,0.773c0,0.344-0.087,0.602-0.258,0.773c-0.172,0.172-0.365,0.257-0.58,0.257
			c-0.301,0-0.537-0.085-0.709-0.257c-0.301-0.301-0.365-0.73-0.192-1.289C200.093,294.949,199.857,295.121,199.686,295.379z
			 M196.528,301.693c-0.515,0-0.881,0.108-1.095,0.322c-0.216,0.216-0.322,0.494-0.322,0.838c0,0.429,0.129,0.751,0.387,0.967
			c0.429,0.343,1.03,0.516,1.804,0.516c0.73,0,1.311-0.129,1.74-0.387c0.429-0.258,0.645-0.603,0.645-1.031
			c0-0.516-0.237-0.815-0.709-0.902L196.528,301.693z M196.142,296.538c0,1.332,0.343,1.998,1.03,1.998
			c0.687,0,1.031-0.666,1.031-1.998c0-1.288-0.345-1.933-1.031-1.933C196.485,294.605,196.142,295.25,196.142,296.538z"/>
		<path style="fill:#1F3AAD;" d="M208.186,300.341c-0.387,0.816-0.773,1.417-1.16,1.804c-0.516,0.516-1.159,0.773-1.933,0.773
			c-0.816,0-1.505-0.28-2.063-0.838c-0.988-0.987-1.353-2.513-1.095-4.575c0.171-0.987,0.579-1.804,1.224-2.448
			c0.516-0.516,1.16-0.773,1.934-0.773s1.417,0.258,1.933,0.773c0.645,0.645,1.031,1.804,1.16,3.479h-4.511
			c0,0.73,0.042,1.289,0.129,1.676c0.3,1.288,0.88,1.933,1.74,1.933c0.858,0,1.589-0.709,2.19-2.126L208.186,300.341z
			 M206.381,298.021c0-0.902-0.086-1.632-0.257-2.19c-0.216-0.688-0.56-1.031-1.031-1.031c-0.474,0-0.816,0.344-1.031,1.031
			c-0.216,0.73-0.345,1.461-0.387,2.19H206.381z"/>
		<path style="fill:#1F3AAD;" d="M215.72,295.25l-1.869,0.838c-0.172,0.086-0.344,0.086-0.516,0
			c-0.301-0.172-0.666-0.494-1.095-0.967c-0.431-0.73-0.409-1.225,0.063-1.482c0.086,0.387,0.301,0.667,0.645,0.838
			c0.215,0.129,0.687,0.107,1.418-0.064c0.815-0.171,1.438-0.322,1.869-0.451c0.171-0.473,0.45-1.289,0.837-2.448
			c0.172-0.559,0.15-0.924-0.064-1.096c-0.301-0.171-0.602-0.3-0.901-0.387c0.042-0.171,0.106-0.279,0.193-0.322
			c0.214-0.129,0.45-0.193,0.708-0.193c0.344,0,0.752,0.172,1.225,0.516c0.429,0.301,0.73,0.58,0.902,0.838
			c0.171,0.215,0.149,0.43-0.064,0.645l-0.258,0.258c-0.129,0.129-0.236,0.321-0.322,0.579c-0.129,0.302-0.301,0.773-0.516,1.418
			c0.602-0.086,1.096-0.106,1.482-0.064c0.3,0.043,0.58,0.172,0.838,0.387c0.772,0.688,1.095,1.848,0.966,3.479
			c-0.086,1.118-0.322,2.148-0.708,3.093c-0.56,1.376-1.225,2.213-1.998,2.514c-0.688,0.258-1.074,0.235-1.16-0.064
			c0-0.172-0.021-0.365-0.064-0.58c0-0.171-0.043-0.3-0.129-0.387c-0.602-0.645-1.117-1.181-1.546-1.611
			c-0.173-0.171-0.129-0.235,0.129-0.192c0.3,0.172,0.601,0.344,0.901,0.515c0.43,0.258,0.795,0.366,1.096,0.322
			c0.3,0,0.602-0.258,0.902-0.772c0.215-0.387,0.387-0.795,0.516-1.225c0.171-0.558,0.3-1.267,0.387-2.127
			c0.085-1.073,0.021-1.825-0.193-2.255c-0.345-0.516-0.902-0.602-1.676-0.258l-2.384,5.478c-0.645,1.461-1.096,2.406-1.354,2.835
			c-0.258,0.387-0.473,0.601-0.645,0.645c-0.43,0.042-0.709-0.193-0.838-0.709c-0.129-0.558-0.064-1.031,0.193-1.418
			c0.516-0.729,0.816-1.181,0.902-1.353c0.3-0.602,0.622-1.246,0.967-1.934C214.775,297.613,215.161,296.667,215.72,295.25z
			 M224.484,297.118c-0.087-0.558-0.216-1.009-0.387-1.353c-0.345-0.816-0.86-1.504-1.547-2.063
			c-0.258-0.215-0.538-0.429-0.838-0.645c-0.129-0.129-0.107-0.171,0.064-0.129c0.773,0.087,1.589,0.409,2.449,0.967
			c1.632,1.031,2.49,2.363,2.577,3.995c0,0.301-0.064,0.623-0.193,0.967c-0.129,0.301-0.365,0.473-0.709,0.516
			c-0.172,0-0.322-0.064-0.451-0.193c-0.043-0.043-0.129-0.171-0.258-0.387c-0.215-0.258-0.602-0.387-1.159-0.387l-2.256,0.258
			c-0.301,0.043-0.172-0.086,0.387-0.387C222.85,297.935,223.624,297.549,224.484,297.118z M224.162,292.479
			c-0.302,0-0.58-0.258-0.838-0.772c-0.345-0.602-0.773-1.053-1.289-1.354c-0.086-0.042-0.086-0.106,0-0.193
			c0.086-0.042,0.429,0,1.031,0.129c0.815,0.172,1.354,0.537,1.611,1.096C224.891,292.071,224.719,292.437,224.162,292.479z
			 M225.385,290.997c-0.516-0.687-0.966-1.138-1.353-1.354c-0.603-0.215-0.56-0.344,0.129-0.387
			c1.159,0.043,1.911,0.345,2.255,0.902c0.344,0.516,0.279,0.881-0.193,1.096C225.965,291.384,225.686,291.298,225.385,290.997z"/>
		<path style="fill:#1F3AAD;" d="M234.208,302.725h-3.802v-0.516c0.387,0,0.687-0.106,0.902-0.322
			c0.171-0.171,0.258-0.429,0.258-0.773v-8.635c0-0.515-0.087-0.858-0.258-1.03c-0.172-0.172-0.474-0.258-0.902-0.258v-0.451
			c0.558,0,1.009-0.042,1.354-0.129c0.343-0.086,0.794-0.258,1.354-0.516v6.058c0.644-1.203,1.438-1.805,2.384-1.805
			c0.687,0,1.245,0.216,1.676,0.645c0.472,0.473,0.708,1.353,0.708,2.642v3.479c0,0.345,0.086,0.603,0.258,0.773
			c0.215,0.216,0.494,0.322,0.838,0.322v0.516h-3.802v-0.516c0.387,0,0.687-0.106,0.902-0.322c0.171-0.171,0.258-0.429,0.258-0.773
			v-3.931c0-1.202-0.43-1.804-1.289-1.804c-0.345,0-0.688,0.172-1.031,0.516c-0.473,0.473-0.772,1.159-0.901,2.062v3.222
			c0,0.345,0.085,0.603,0.257,0.773c0.172,0.172,0.365,0.258,0.58,0.258h0.258V302.725z"/>
		<path style="fill:#1F3AAD;" d="M242.064,302.982c-0.86,0-1.569-0.28-2.127-0.838c-0.902-0.902-1.353-2.062-1.353-3.479
			c0-1.46,0.45-2.642,1.353-3.544c0.558-0.558,1.267-0.838,2.127-0.838c0.858,0,1.567,0.28,2.126,0.838
			c0.902,0.902,1.354,2.084,1.354,3.544c0,1.418-0.451,2.577-1.354,3.479C243.631,302.702,242.922,302.982,242.064,302.982z
			 M240.388,298.665c0,1.762,0.258,2.899,0.773,3.415c0.3,0.301,0.601,0.451,0.902,0.451c0.3,0,0.601-0.15,0.901-0.451
			c0.516-0.516,0.773-1.653,0.773-3.415c0-1.761-0.258-2.899-0.773-3.415c-0.301-0.301-0.602-0.451-0.901-0.451
			c-0.302,0-0.603,0.15-0.902,0.451C240.646,295.766,240.388,296.904,240.388,298.665z"/>
		<path style="fill:#1F3AAD;" d="M251.402,295.379c0.3,0.516,0.387,1.139,0.258,1.868c-0.258,0.945-0.925,1.525-1.998,1.74
			c-0.688,0.087-1.354,0.043-1.997-0.129c-0.56,0.559-0.538,0.902,0.064,1.031c0.343,0.043,0.729,0.086,1.159,0.129
			c1.246,0.129,2.019,0.215,2.32,0.258c0.987,0.172,1.481,0.837,1.481,1.997c0,0.645-0.236,1.202-0.708,1.676
			c-0.56,0.558-1.547,0.837-2.965,0.837c-0.73,0-1.396-0.107-1.997-0.321c-0.474-0.173-0.796-0.451-0.967-0.838
			c-0.172-0.387-0.193-0.752-0.064-1.096c0.171-0.429,0.451-0.773,0.838-1.031c-0.474-0.343-0.709-0.794-0.709-1.353
			c0-0.344,0.129-0.645,0.387-0.902c0.214-0.215,0.472-0.408,0.773-0.58c-0.216-0.129-0.431-0.3-0.645-0.516
			c-0.387-0.387-0.58-0.88-0.58-1.482c0-0.687,0.258-1.288,0.773-1.804c0.601-0.602,1.524-0.815,2.771-0.645
			c0.602,0.087,1.117,0.322,1.547,0.709c0.558-0.473,1.031-0.709,1.417-0.709c0.387,0,0.709,0.129,0.967,0.387
			c0.215,0.216,0.322,0.473,0.322,0.773c0,0.344-0.087,0.602-0.258,0.773c-0.172,0.172-0.365,0.257-0.58,0.257
			c-0.301,0-0.537-0.085-0.709-0.257c-0.301-0.301-0.365-0.73-0.192-1.289C251.809,294.949,251.573,295.121,251.402,295.379z
			 M248.244,301.693c-0.515,0-0.881,0.108-1.095,0.322c-0.216,0.216-0.322,0.494-0.322,0.838c0,0.429,0.129,0.751,0.387,0.967
			c0.429,0.343,1.03,0.516,1.804,0.516c0.73,0,1.311-0.129,1.74-0.387c0.429-0.258,0.645-0.603,0.645-1.031
			c0-0.516-0.237-0.815-0.709-0.902L248.244,301.693z M247.858,296.538c0,1.332,0.343,1.998,1.03,1.998
			c0.687,0,1.031-0.666,1.031-1.998c0-1.288-0.345-1.933-1.031-1.933C248.201,294.605,247.858,295.25,247.858,296.538z"/>
		<path style="fill:#1F3AAD;" d="M259.902,300.341c-0.387,0.816-0.773,1.417-1.16,1.804c-0.516,0.516-1.159,0.773-1.933,0.773
			c-0.816,0-1.505-0.28-2.063-0.838c-0.988-0.987-1.353-2.513-1.095-4.575c0.171-0.987,0.579-1.804,1.224-2.448
			c0.516-0.516,1.16-0.773,1.934-0.773s1.417,0.258,1.933,0.773c0.645,0.645,1.031,1.804,1.16,3.479h-4.511
			c0,0.73,0.042,1.289,0.129,1.676c0.3,1.288,0.88,1.933,1.74,1.933c0.858,0,1.589-0.709,2.19-2.126L259.902,300.341z
			 M258.097,298.021c0-0.902-0.086-1.632-0.257-2.19c-0.216-0.688-0.56-1.031-1.031-1.031c-0.474,0-0.816,0.344-1.031,1.031
			c-0.216,0.73-0.345,1.461-0.387,2.19H258.097z"/>
		<path style="fill:#1F3AAD;" d="M262.795,302.725h-3.802v-0.516c0.387,0,0.687-0.106,0.902-0.322
			c0.171-0.171,0.258-0.429,0.258-0.773v-8.635c0-0.515-0.087-0.858-0.258-1.03c-0.172-0.172-0.474-0.258-0.902-0.258v-0.451
			c0.558,0,1.009-0.042,1.354-0.129c0.343-0.086,0.794-0.258,1.354-0.516v6.058c0.644-1.203,1.438-1.805,2.384-1.805
			c0.687,0,1.245,0.216,1.676,0.645c0.472,0.473,0.708,1.353,0.708,2.642v3.479c0,0.345,0.086,0.603,0.258,0.773
			c0.215,0.216,0.494,0.322,0.838,0.322v0.516h-3.802v-0.516c0.387,0,0.687-0.106,0.902-0.322c0.171-0.171,0.258-0.429,0.258-0.773
			v-3.931c0-1.202-0.43-1.804-1.289-1.804c-0.345,0-0.688,0.172-1.031,0.516c-0.473,0.473-0.772,1.159-0.901,2.062v3.222
			c0,0.345,0.085,0.603,0.257,0.773c0.172,0.172,0.365,0.258,0.58,0.258h0.258V302.725z"/>
		<path style="fill:#1F3AAD;" d="M270.652,302.982c-0.859,0-1.568-0.28-2.126-0.838c-0.902-0.902-1.354-2.062-1.354-3.479
			c0-1.46,0.451-2.642,1.354-3.544c0.558-0.558,1.267-0.838,2.126-0.838s1.567,0.28,2.127,0.838
			c0.901,0.902,1.353,2.084,1.353,3.544c0,1.418-0.451,2.577-1.353,3.479C272.219,302.702,271.511,302.982,270.652,302.982z
			 M268.977,298.665c0,1.762,0.258,2.899,0.772,3.415c0.301,0.301,0.602,0.451,0.902,0.451c0.3,0,0.602-0.15,0.902-0.451
			c0.516-0.516,0.773-1.653,0.773-3.415c0-1.761-0.258-2.899-0.773-3.415c-0.301-0.301-0.603-0.451-0.902-0.451
			c-0.301,0-0.602,0.15-0.902,0.451C269.235,295.766,268.977,296.904,268.977,298.665z"/>
		<path style="fill:#1F3AAD;" d="M279.99,295.379c0.3,0.516,0.387,1.139,0.258,1.868c-0.258,0.945-0.924,1.525-1.997,1.74
			c-0.688,0.087-1.354,0.043-1.998-0.129c-0.559,0.559-0.537,0.902,0.064,1.031c0.344,0.043,0.73,0.086,1.16,0.129
			c1.245,0.129,2.019,0.215,2.319,0.258c0.988,0.172,1.482,0.837,1.482,1.997c0,0.645-0.236,1.202-0.709,1.676
			c-0.559,0.558-1.547,0.837-2.964,0.837c-0.731,0-1.396-0.107-1.998-0.321c-0.473-0.173-0.795-0.451-0.967-0.838
			s-0.192-0.752-0.063-1.096c0.171-0.429,0.45-0.773,0.837-1.031c-0.473-0.343-0.709-0.794-0.709-1.353
			c0-0.344,0.129-0.645,0.387-0.902c0.215-0.215,0.473-0.408,0.773-0.58c-0.215-0.129-0.43-0.3-0.645-0.516
			c-0.387-0.387-0.58-0.88-0.58-1.482c0-0.687,0.258-1.288,0.773-1.804c0.602-0.602,1.524-0.815,2.771-0.645
			c0.601,0.087,1.116,0.322,1.546,0.709c0.558-0.473,1.031-0.709,1.418-0.709s0.709,0.129,0.967,0.387
			c0.214,0.216,0.322,0.473,0.322,0.773c0,0.344-0.087,0.602-0.258,0.773c-0.173,0.172-0.366,0.257-0.58,0.257
			c-0.301,0-0.538-0.085-0.709-0.257c-0.301-0.301-0.365-0.73-0.193-1.289C280.398,294.949,280.161,295.121,279.99,295.379z
			 M276.833,301.693c-0.516,0-0.881,0.108-1.096,0.322c-0.215,0.216-0.322,0.494-0.322,0.838c0,0.429,0.129,0.751,0.387,0.967
			c0.429,0.343,1.031,0.516,1.805,0.516c0.729,0,1.31-0.129,1.739-0.387s0.645-0.603,0.645-1.031c0-0.516-0.236-0.815-0.709-0.902
			L276.833,301.693z M276.446,296.538c0,1.332,0.344,1.998,1.031,1.998c0.687,0,1.031-0.666,1.031-1.998
			c0-1.288-0.345-1.933-1.031-1.933C276.79,294.605,276.446,295.25,276.446,296.538z"/>
		<path style="fill:#1F3AAD;" d="M288.491,300.341c-0.387,0.816-0.773,1.417-1.16,1.804c-0.516,0.516-1.16,0.773-1.934,0.773
			c-0.816,0-1.504-0.28-2.062-0.838c-0.989-0.987-1.354-2.513-1.096-4.575c0.171-0.987,0.58-1.804,1.225-2.448
			c0.516-0.516,1.159-0.773,1.933-0.773s1.418,0.258,1.934,0.773c0.645,0.645,1.031,1.804,1.16,3.479h-4.511
			c0,0.73,0.042,1.289,0.129,1.676c0.3,1.288,0.88,1.933,1.739,1.933s1.589-0.709,2.191-2.126L288.491,300.341z M286.686,298.021
			c0-0.902-0.087-1.632-0.258-2.19c-0.216-0.688-0.559-1.031-1.031-1.031s-0.816,0.344-1.031,1.031
			c-0.215,0.73-0.344,1.461-0.386,2.19H286.686z"/>
		<path style="fill:#1F3AAD;" d="M192.029,314.366c0.944,0.387,1.611,0.773,1.998,1.159c0.343,0.645,0.193,1.011-0.451,1.096
			l-0.451-0.064l-2.32,0.193c-0.602,0.044-1.288,0.151-2.062,0.322c-0.345,0.087-0.623,0.151-0.838,0.193l0.387,1.547
			c0.3,1.117,0.536,1.955,0.709,2.513c0.258,0.602,0.322,1.009,0.193,1.225c-0.173,0.687-0.645,0.838-1.418,0.451
			c-0.474-0.258-0.73-0.667-0.773-1.225c-0.043-0.429-0.279-1.782-0.709-4.06c-0.258,0.087-0.772,0.258-1.546,0.516l-0.967,0.322
			c-0.345,0.129-0.967,0.387-1.869,0.773c-0.301,0.043-0.837-0.215-1.61-0.773c-0.516-0.387-0.731-0.815-0.645-1.289
			c0.042-0.129,0.106-0.235,0.193-0.322c0.3,0.258,0.516,0.43,0.645,0.516c0.429,0.258,0.944,0.301,1.546,0.129
			c0.645-0.171,1.289-0.344,1.934-0.516l2.062-0.58c-0.172-0.902-0.408-1.804-0.708-2.706c-1.247,0.301-2.085,0.602-2.514,0.902
			c-0.258,0.172-0.43,0.258-0.516,0.258c-0.258-0.043-0.623-0.215-1.095-0.516c-0.603-0.344-0.902-0.687-0.902-1.031
			c0-0.3,0.085-0.516,0.258-0.645c0.3,0.301,0.58,0.494,0.838,0.58c0.3,0.087,0.665,0.064,1.095-0.064
			c0.773-0.171,1.653-0.387,2.643-0.645c-0.431-1.632-0.688-2.491-0.773-2.577c-0.129-0.129-0.345-0.235-0.645-0.322
			c-0.216-0.042-0.474-0.086-0.773-0.129c0.086-0.258,0.258-0.473,0.516-0.645c0.215-0.215,0.537-0.258,0.967-0.129
			c0.987,0.129,1.632,0.301,1.933,0.516c0.344,0.345,0.344,0.688,0,1.031c0.086,0.516,0.193,1.095,0.322,1.739l2.385-0.645
			l0.709-0.708c0.601,0.215,1.116,0.451,1.546,0.708c0.387,0.216,0.558,0.451,0.516,0.709c-0.043,0.258-0.28,0.409-0.709,0.451
			c-1.203,0.087-2.6,0.322-4.188,0.709l0.709,2.771c1.031-0.258,2.233-0.558,3.608-0.901L192.029,314.366z"/>
		<path style="fill:#1F3AAD;" d="M205.555,313.399c0.214,0.129,0.536,0.409,0.967,0.838c0.601,0.516,0.88,0.859,0.837,1.031
			s-0.193,0.279-0.45,0.321l-0.322,0.064c-0.773,0.603-1.525,1.183-2.256,1.74c-0.559,0.387-1.117,0.752-1.675,1.096
			c-0.258,0.129-0.237,0,0.064-0.387c0.343-0.387,0.729-0.88,1.159-1.482c0.344-0.429,0.645-0.88,0.902-1.353
			c-1.031,0.172-2.17,0.473-3.415,0.901c0.387,1.547,0.794,3.072,1.225,4.575c0.129,0.516,0.257,1.031,0.386,1.547
			c0.043,0.214,0,0.407-0.129,0.58c-0.257,0.387-0.666,0.364-1.224-0.064c-0.216-0.216-0.345-0.451-0.387-0.709
			c-0.043-0.602-0.107-1.073-0.193-1.418c-0.301-1.46-0.494-2.361-0.58-2.706l-0.387-1.354c-1.246,0.387-1.977,0.645-2.19,0.773
			c-0.302,0.172-0.538,0.301-0.709,0.387c-0.129,0-0.494-0.258-1.096-0.773c-0.473-0.687-0.473-1.138,0-1.354
			c0.171,0.302,0.344,0.495,0.516,0.58c0.171,0.087,0.408,0.087,0.709,0c0.773-0.214,1.589-0.451,2.448-0.709
			c-0.172-0.644-0.408-1.417-0.709-2.319c-0.086-0.258-0.279-0.451-0.579-0.58l-0.516-0.193c0.042-0.171,0.129-0.322,0.258-0.451
			c0.171-0.343,0.622-0.364,1.353-0.064c0.645,0.216,1.053,0.409,1.225,0.58c0.129,0.129,0.086,0.43-0.129,0.902l0.516,1.805
			l3.737-1.031L205.555,313.399z"/>
		<path style="fill:#1F3AAD;" d="M214.249,311.788l0.064,2.385c0.042,0.945,0.064,1.654,0.064,2.126
			c0.042,0.731-0.044,1.183-0.258,1.354c-0.301,0.258-0.623,0.301-0.967,0.129c-0.345-0.171-0.559-0.451-0.645-0.838
			c0-0.516,0.021-1.052,0.064-1.61c0.043-0.473,0.043-1.202,0-2.191c-0.043-0.815-0.086-1.567-0.129-2.255
			c-0.043-0.129-0.15-0.258-0.322-0.387c-0.258-0.172-0.473-0.301-0.645-0.387c0.129-0.171,0.365-0.322,0.709-0.451
			c0.215-0.086,0.602,0.022,1.16,0.322l0.58,0.322c0.516,0.301,0.794,0.537,0.838,0.709c0,0.086-0.044,0.193-0.129,0.321
			C214.462,311.553,214.333,311.703,214.249,311.788z M220.305,311.016v2.126c0,1.074-0.043,2.041-0.129,2.899
			c-0.129,1.074-0.344,1.956-0.644,2.643c-0.603,1.288-1.698,2.384-3.287,3.286c-0.602,0.344-1.396,0.687-2.384,1.031
			c-0.43,0.129-0.516,0.064-0.258-0.193c0.815-0.43,1.438-0.816,1.869-1.16c1.588-1.245,2.49-2.921,2.706-5.026
			c0.171-1.675,0.193-3.565,0.064-5.67c-0.043-0.602-0.129-0.967-0.258-1.096c-0.087-0.086-0.387-0.215-0.902-0.387
			c0-0.129,0.042-0.215,0.129-0.258c0.258-0.215,0.473-0.344,0.645-0.387c0.344-0.086,0.987,0.151,1.934,0.709
			c0.343,0.216,0.558,0.365,0.644,0.451c0.258,0.258,0.301,0.494,0.129,0.709L220.305,311.016z"/>
		<path style="fill:#1F3AAD;" d="M234.927,311.337c-0.989,0-1.74,0.022-2.256,0.064c-1.288,0.087-2.835,0.302-4.639,0.645
			c-0.516,0.087-0.946,0.237-1.289,0.451c-0.345,0.216-0.731,0.129-1.16-0.258c-0.172-0.129-0.43-0.364-0.773-0.709
			c-0.301-0.3-0.473-0.601-0.516-0.901c-0.043-0.344,0.043-0.559,0.258-0.645c0.129,0.129,0.365,0.301,0.709,0.516
			c0.3,0.172,0.58,0.258,0.838,0.258c0.773-0.043,2.362-0.172,4.769-0.387l4.769-0.322l0.773-0.709
			c0.472,0.301,0.987,0.752,1.546,1.354c0.516,0.559,0.73,0.945,0.645,1.159c-0.043,0.129-0.236,0.216-0.58,0.258
			c-0.215,0.044-0.494,0.064-0.838,0.064c-1.633,0.86-3.2,1.59-4.703,2.191c-0.431,1.675-0.817,2.857-1.16,3.544
			c-0.603,1.203-1.396,2.234-2.385,3.093c-0.387,0.345-1.01,0.752-1.868,1.225c-0.516,0.258-0.623,0.214-0.322-0.129
			c0.558-0.473,0.987-0.924,1.289-1.354c0.729-0.987,1.267-2.019,1.61-3.093c0.129-0.473,0.279-1.116,0.451-1.934
			c0.215-1.159,0.258-1.804,0.129-1.933s-0.409-0.3-0.838-0.516c0.086-0.171,0.215-0.279,0.387-0.322
			c0.3-0.086,0.58-0.106,0.838-0.064c0.344,0.087,0.987,0.474,1.934,1.16C233.402,313.229,234.196,312.326,234.927,311.337z"/>
		<path style="fill:#1F3AAD;" d="M249.807,311.337c-0.989,0-1.74,0.022-2.256,0.064c-1.288,0.087-2.835,0.302-4.639,0.645
			c-0.516,0.087-0.946,0.237-1.289,0.451c-0.345,0.216-0.731,0.129-1.16-0.258c-0.172-0.129-0.43-0.364-0.773-0.709
			c-0.301-0.3-0.473-0.601-0.516-0.901c-0.043-0.344,0.043-0.559,0.258-0.645c0.129,0.129,0.365,0.301,0.709,0.516
			c0.3,0.172,0.58,0.258,0.838,0.258c0.773-0.043,2.362-0.172,4.769-0.387l4.769-0.322l0.773-0.709
			c0.472,0.301,0.987,0.752,1.546,1.354c0.516,0.559,0.73,0.945,0.645,1.159c-0.043,0.129-0.236,0.216-0.58,0.258
			c-0.215,0.044-0.494,0.064-0.838,0.064c-1.633,0.86-3.2,1.59-4.703,2.191c-0.431,1.675-0.817,2.857-1.16,3.544
			c-0.603,1.203-1.396,2.234-2.385,3.093c-0.387,0.345-1.01,0.752-1.868,1.225c-0.516,0.258-0.623,0.214-0.322-0.129
			c0.558-0.473,0.987-0.924,1.289-1.354c0.729-0.987,1.267-2.019,1.61-3.093c0.129-0.473,0.279-1.116,0.451-1.934
			c0.215-1.159,0.258-1.804,0.129-1.933s-0.409-0.3-0.838-0.516c0.086-0.171,0.215-0.279,0.387-0.322
			c0.3-0.086,0.58-0.106,0.838-0.064c0.344,0.087,0.987,0.474,1.934,1.16C248.282,313.229,249.076,312.326,249.807,311.337z"/>
		<path style="fill:#1F3AAD;" d="M257.34,316.492c-0.129-0.558-0.258-0.967-0.387-1.224c-0.129-0.258-0.279-0.473-0.451-0.645
			s-0.387-0.365-0.644-0.58c-0.129-0.129-0.022-0.15,0.321-0.064c1.504,0.301,2.406,0.902,2.707,1.804
			c0.214,0.688,0.042,1.16-0.516,1.418c-0.216,0.087-0.43,0.064-0.645-0.064C257.555,317.008,257.426,316.794,257.34,316.492z
			 M265.975,314.946l-1.031,1.675c-0.559,0.945-1.01,1.611-1.353,1.998c-0.603,0.773-1.16,1.353-1.676,1.739
			c-1.117,0.902-2.513,1.653-4.188,2.256c-0.345,0.085-0.408,0.021-0.193-0.193c1.761-0.988,3.157-2.127,4.188-3.415
			c0.73-0.944,1.331-1.955,1.805-3.029l0.516-1.224c0.472-0.815,0.322-1.354-0.451-1.611c0.214-0.344,0.58-0.451,1.095-0.322
			c0.301,0,0.645,0.193,1.031,0.58C266.491,314.002,266.577,314.517,265.975,314.946z M259.016,313.013
			c1.503,0.172,2.405,0.752,2.706,1.74c0.215,0.73,0.042,1.182-0.516,1.353c-0.344,0.129-0.602,0.044-0.773-0.258
			c-0.086-0.085-0.193-0.364-0.321-0.837c-0.216-0.688-0.624-1.246-1.225-1.676C258.414,313.12,258.458,313.013,259.016,313.013z"/>
		<path style="fill:#1F3AAD;" d="M279.566,310.436c1.16,0.988,1.805,1.719,1.933,2.19c0.086,0.258-0.172,0.451-0.772,0.58
			c-0.302,0.603-0.624,1.182-0.967,1.74c-0.945,1.633-1.719,2.793-2.32,3.479c-0.816,0.859-1.654,1.59-2.513,2.19
			c-1.117,0.773-2.319,1.354-3.608,1.74c-0.387,0.085-0.409-0.022-0.064-0.322c0.902-0.558,1.589-1.031,2.062-1.418
			c1.031-0.858,1.934-1.825,2.707-2.899c1.073-1.547,1.954-3.372,2.642-5.478c-0.473,0.044-1.117,0.108-1.933,0.193l-2.9,0.387
			c-0.773,0.087-1.375,0.236-1.804,0.451c-0.387,0.172-0.667,0.216-0.838,0.129c-0.345-0.129-0.731-0.451-1.16-0.967
			c-0.516-0.558-0.666-1.031-0.451-1.417c0.086-0.215,0.193-0.344,0.322-0.387c0.387,0.43,0.687,0.688,0.902,0.772
			c0.3,0.129,0.709,0.173,1.225,0.129l2.384-0.257c2.534-0.215,4.06-0.344,4.575-0.387L279.566,310.436z M282.272,311.53
			c-0.473,0-0.881-0.171-1.224-0.515c-0.345-0.344-0.516-0.752-0.516-1.225s0.171-0.88,0.516-1.225
			c0.343-0.343,0.751-0.516,1.224-0.516s0.88,0.173,1.225,0.516c0.344,0.345,0.516,0.752,0.516,1.225s-0.172,0.881-0.516,1.225
			C283.152,311.359,282.745,311.53,282.272,311.53z M282.272,311.016c0.301,0,0.58-0.129,0.838-0.387s0.387-0.537,0.387-0.838
			c0-0.3-0.129-0.58-0.387-0.838s-0.537-0.387-0.838-0.387s-0.58,0.129-0.838,0.387c-0.257,0.258-0.386,0.538-0.386,0.838
			c0,0.301,0.129,0.58,0.386,0.838C281.692,310.887,281.971,311.016,282.272,311.016z"/>
		<path style="fill:#1F3AAD;" d="M283.168,319.843h2.835v-1.804h-0.837v0.322c0,0.215-0.044,0.344-0.129,0.387
			c-0.173,0.086-0.409,0.15-0.709,0.193c-0.474,0.086-0.709-0.021-0.709-0.322v-6.122l1.74,0.902h0.644v-1.676h-2.577l-0.193-0.45
			h2.771v-2.965l1.998,0.193c0.344,0.129,0.364,0.345,0.064,0.645l-0.516,0.322v1.805h0.838l1.031-1.354l1.288,1.289
			c0.215,0.257,0.172,0.43-0.129,0.515h-3.028v1.676h0.902l0.58-0.967l1.417,1.289c0.258,0.216,0.215,0.43-0.129,0.645l-0.129,0.064
			v3.544c0,0.216-0.064,0.345-0.193,0.387c-0.559,0.172-0.924,0.258-1.095,0.258c-0.173-0.043-0.258-0.15-0.258-0.322v-0.258h-1.096
			v1.804h1.225l0.967-1.288l1.353,1.224c0.258,0.258,0.215,0.431-0.129,0.516h-3.415v2.514c0,0.214-0.043,0.343-0.129,0.387
			c-0.087,0.085-0.301,0.149-0.645,0.193c-0.516,0.085-0.773-0.022-0.773-0.322v-2.771h-2.706L283.168,319.843z M285.167,313.851
			v1.611h0.837v-1.611H285.167z M285.167,315.912v1.676h0.837v-1.676H285.167z M287.55,313.851v1.611h1.096v-1.611H287.55z
			 M287.55,315.912v1.676h1.096v-1.676H287.55z M294.896,315.719c-0.215,0.56-0.537,1.247-0.966,2.063
			c-0.902,1.762-1.461,2.814-1.676,3.157c1.331-0.042,2.642-0.129,3.931-0.258c-0.43-1.073-0.924-1.868-1.482-2.384
			c-0.301-0.215-0.043-0.193,0.773,0.064c1.331,0.645,2.256,1.546,2.771,2.706c0.171,0.387,0.235,0.751,0.192,1.096
			c-0.257,0.902-0.73,1.138-1.417,0.709c-0.258-0.216-0.409-0.474-0.451-0.773l-0.193-0.967c-1.848,0.559-3.566,1.009-5.155,1.354
			l-0.258,0.387c-0.215,0.387-0.494,0.343-0.838-0.129l-1.03-1.74c0.815,0,1.632-0.021,2.448-0.064
			c0.258-0.858,0.429-1.524,0.516-1.997l0.645-3.223h-2.127l-0.129-0.45h5.478l1.096-1.547l1.481,1.418
			c0.258,0.301,0.215,0.494-0.128,0.579H294.896z M295.412,310.951l0.967-1.418l1.547,1.289c0.3,0.301,0.258,0.494-0.129,0.579
			h-6.509l-0.064-0.45H295.412z"/>
		<path style="fill:#1F3AAD;" d="M301.528,319.393c-0.559,0.515-1.183,1.01-1.869,1.481l-0.129,0.258
			c-0.301,0.43-0.602,0.43-0.902,0l-0.837-1.61l1.03-0.129v-9.473h-0.901v-0.451h4.382l0.901-1.225l1.289,1.16
			c0.258,0.258,0.215,0.43-0.129,0.516h-1.289v4.704h3.029c0.258-0.859,0.451-1.911,0.58-3.158l1.417,0.58
			c0.172,0.129,0.193,0.302,0.064,0.516l-0.322,0.258c-0.559,0.902-0.945,1.504-1.159,1.805h1.933
			c-0.087-2.104-0.129-4.146-0.129-6.122l1.869,0.322c0.258,0.087,0.278,0.258,0.064,0.516l-0.516,0.322
			c0,2.793,0.021,4.446,0.064,4.962h1.353l0.838-1.225l1.354,1.16c0.258,0.258,0.215,0.43-0.129,0.516h-3.415
			c0.085,1.117,0.193,2.04,0.322,2.771c0.3-0.687,0.601-1.547,0.901-2.577l1.676,1.03c0.473,0.302,0.408,0.516-0.193,0.645
			l-0.322,0.064c-0.43,1.118-0.881,2.02-1.353,2.706c0.515,0.817,0.88,1.183,1.095,1.096c0.129-0.042,0.301-0.3,0.516-0.773
			c0.215-0.429,0.364-0.751,0.451-0.966c0.171-0.215,0.258-0.172,0.258,0.129c-0.129,0.772-0.193,1.375-0.193,1.804
			c0,0.43,0.129,0.902,0.387,1.418c0.129,0.258,0.086,0.451-0.129,0.58c-0.172,0.129-0.43,0.171-0.773,0.129
			c-0.902-0.129-1.762-0.816-2.577-2.063c-0.731,0.815-1.634,1.547-2.707,2.191c-0.086,0.085-0.236,0.171-0.45,0.258
			c-0.431,0.129-0.58,0.085-0.451-0.129c0.042-0.044,0.085-0.087,0.129-0.129c0.687-0.56,1.245-1.118,1.675-1.676
			c0.473-0.601,0.859-1.202,1.16-1.805c-0.172-0.429-0.322-0.987-0.451-1.675c-0.129-0.687-0.236-1.696-0.322-3.028h-5.542v7.668
			c0,0.214-0.086,0.364-0.258,0.451c-0.215,0.129-0.494,0.193-0.837,0.193c-0.302,0-0.451-0.129-0.451-0.387V319.393z
			 M300.368,309.92v2.642h1.16v-2.642H300.368z M300.368,315.59h1.16v-2.577h-1.16V315.59z M300.368,319.07l1.16-0.193v-2.836h-1.16
			V319.07z M307.198,309.92l1.031,0.967c0.215,0.215,0.193,0.365-0.064,0.45h-4.897v-0.45h1.676v-2.449l1.74,0.129
			c0.3,0.087,0.321,0.28,0.064,0.58l-0.516,0.322v1.418h0.322L307.198,309.92z M304.75,314.431c-0.301,0-0.494-0.086-0.58-0.258
			c-0.086-0.086-0.129-0.279-0.129-0.58c-0.043-0.602-0.129-1.052-0.258-1.354c-0.43-0.601-0.322-0.773,0.322-0.516
			c0.645,0.302,1.053,0.709,1.225,1.225C305.629,313.809,305.436,314.302,304.75,314.431z M305.201,321.39v0.773
			c0,0.215-0.064,0.343-0.193,0.387c-0.172,0.085-0.365,0.129-0.58,0.129c-0.344,0.042-0.516-0.064-0.516-0.322v-6.638l1.354,0.709
			h1.289l0.515-0.773l1.225,1.225c0.086,0.087,0.064,0.172-0.064,0.258l-0.258,0.193v3.995c0,0.258-0.086,0.43-0.258,0.516
			c-0.215,0.129-0.451,0.171-0.709,0.129c-0.215,0-0.321-0.107-0.321-0.322v-0.258H305.201z M305.201,316.879v1.74h1.482v-1.74
			H305.201z M305.201,320.938h1.482v-1.868h-1.482V320.938z M310.42,310.758c-0.302-0.516-0.064-0.58,0.709-0.193
			c0.343,0.172,0.579,0.301,0.708,0.387c0.258,0.172,0.451,0.408,0.58,0.708c0.171,0.387,0.171,0.773,0,1.16
			c-0.387,0.516-0.838,0.538-1.353,0.064c-0.087-0.214-0.151-0.516-0.193-0.902C310.828,311.595,310.678,311.188,310.42,310.758z"/>
		<path style="fill:#1F3AAD;" d="M326.202,312.626c0.429,0.172,0.967,0.494,1.611,0.967c0.386,0.301,0.472,0.623,0.258,0.967
			c-0.129,0.172-0.366,0.215-0.709,0.129c-0.302-0.086-0.667-0.15-1.096-0.193c-0.43-0.043-1.246-0.086-2.448-0.129
			c0,0.43-0.044,0.924-0.129,1.481c-0.173,1.461-0.495,2.578-0.967,3.352c-0.43,0.688-1.118,1.396-2.063,2.126
			c-0.773,0.558-1.697,1.053-2.771,1.482c-0.345,0.129-0.387,0.064-0.129-0.193l0.773-0.516c0.645-0.429,1.245-0.987,1.804-1.676
			c0.43-0.516,0.795-1.138,1.096-1.868c0.429-0.988,0.645-2.385,0.645-4.188c-1.332,0-2.428,0.086-3.286,0.258
			c0.042,0.516,0.064,1.182,0.064,1.997c0,0.731-0.022,1.183-0.064,1.354c-0.431,0.559-0.945,0.516-1.547-0.129
			c-0.172-0.215-0.236-0.429-0.193-0.645c0.086-0.472,0.129-0.794,0.129-0.967v-1.353c-0.258,0.086-0.537,0.172-0.838,0.258
			c-0.172,0.043-0.344,0.086-0.516,0.129s-0.386,0.129-0.644,0.257c-0.129,0.087-0.302,0.064-0.516-0.063
			c-0.129-0.086-0.28-0.215-0.451-0.387c-0.345-0.301-0.559-0.537-0.645-0.709c-0.216-0.687-0.151-1.182,0.193-1.482
			c0.215,0.301,0.387,0.538,0.516,0.709c0.214,0.216,0.516,0.301,0.902,0.258c0.815-0.086,1.481-0.15,1.997-0.193
			c-0.043-1.547-0.107-2.427-0.193-2.642c-0.043-0.129-0.365-0.344-0.967-0.645c0.043-0.086,0.129-0.172,0.258-0.258
			s0.279-0.171,0.451-0.258c0.387-0.086,1.096,0.172,2.127,0.773c0.258,0.129,0.322,0.322,0.193,0.58l-0.258,0.515
			c0,0.902,0,1.505,0,1.805l3.286-0.258c-0.043-2.062-0.087-3.179-0.129-3.351c-0.043-0.171-0.172-0.322-0.387-0.451
			c-0.129-0.042-0.345-0.129-0.645-0.258c0.043-0.129,0.129-0.235,0.258-0.322c0.258-0.171,0.451-0.258,0.58-0.258
			c0.258,0,0.687,0.151,1.289,0.451c0.687,0.345,1.073,0.623,1.159,0.838c0.086,0.172-0.043,0.387-0.386,0.645v2.513
			c0.687,0,1.31-0.021,1.868-0.064L326.202,312.626z"/>
		<path style="fill:#1F3AAD;" d="M335.282,315.333c-1.246,0.816-2.342,1.439-3.286,1.868c-0.859,0.387-1.804,0.731-2.835,1.031
			c-0.645,0.172-0.538,0,0.322-0.516c0.343-0.171,0.966-0.558,1.868-1.16c2.019-1.331,3.974-3.093,5.864-5.283
			c0.171-0.215,0.387-0.473,0.645-0.773c0.214-0.258,0.322-0.451,0.322-0.58c0-0.215-0.28-0.451-0.838-0.709
			c0.129-0.171,0.343-0.279,0.645-0.322c0.387-0.042,0.773,0.087,1.159,0.387l0.58,0.451c0.258,0.216,0.516,0.494,0.773,0.838
			c0.387,0.387,0.258,0.709-0.387,0.966c-0.301,0.044-0.559,0.173-0.773,0.387c-0.816,0.731-1.633,1.44-2.448,2.127l0.387,0.193
			c0.3,0.258,0.278,0.516-0.064,0.773l-0.193,0.064c0,0.772,0.021,2.148,0.064,4.124v1.224c0.042,0.431,0.064,0.752,0.064,0.967
			c0,0.345-0.043,0.645-0.129,0.902c-0.129,0.429-0.451,0.622-0.967,0.58c-0.387-0.044-0.688-0.345-0.902-0.902
			c-0.086-0.215-0.107-0.493-0.064-0.838c0.043-0.171,0.086-0.407,0.129-0.709c0.086-0.472,0.129-1.438,0.129-2.899
			C335.346,317.051,335.325,316.321,335.282,315.333z"/>
		<path style="fill:#1F3AAD;" d="M350.548,314.495c1.632,0.215,2.771,0.473,3.415,0.773c1.16,0.559,1.805,1.224,1.933,1.997
			c0.129,0.645-0.043,1.054-0.515,1.225c-0.56,0.215-1.011,0.064-1.354-0.451c-0.603-0.944-1.203-1.676-1.805-2.191
			c-0.473-0.386-1.03-0.708-1.675-0.966v3.222c0,1.117,0.021,2.105,0.064,2.964c0.042,0.73,0,1.246-0.129,1.547
			c-0.087,0.214-0.28,0.407-0.58,0.58c-0.559,0.214-0.967-0.022-1.225-0.709c-0.086-0.258-0.107-0.645-0.064-1.16
			c0-0.258,0.021-0.601,0.064-1.031c0.129-1.159,0.171-3.135,0.129-5.928c-0.043-2.362-0.086-3.78-0.129-4.253
			c-0.043-0.3-0.387-0.58-1.031-0.838c0.086-0.129,0.215-0.235,0.387-0.322c0.301-0.129,0.559-0.215,0.773-0.258
			c0.258-0.042,0.666,0.129,1.225,0.516c0.516,0.345,0.838,0.623,0.967,0.838s0.021,0.494-0.322,0.838
			C350.633,311.316,350.59,312.52,350.548,314.495z"/>
	</g>
</g>
</svg>
