<?xml version="1.0" encoding="iso-8859-1"?>
<!-- Generator: Adobe Illustrator 16.0.3, SVG Export Plug-In . SVG Version: 6.00 Build 0)  -->
<!DOCTYPE svg PUBLIC "-//W3C//DTD SVG 1.1//EN" "http://www.w3.org/Graphics/SVG/1.1/DTD/svg11.dtd">
<svg version="1.1" id="&#x30EC;&#x30A4;&#x30E4;&#x30FC;_1"
	 xmlns="http://www.w3.org/2000/svg" xmlns:xlink="http://www.w3.org/1999/xlink" x="0px" y="0px" width="396.512px"
	 height="370.931px" viewBox="0 0 396.512 370.931" style="enable-background:new 0 0 396.512 370.931;" xml:space="preserve">
<g>
	<g>
		<circle style="fill:#FFFFFF;stroke:#231815;stroke-width:31;stroke-miterlimit:10;" cx="198.528" cy="139.303" r="112.996"/>
		<path d="M266.896,239.149h-26.832l-68.174-98.611l-19.439,21.426v77.186h-22.725V42.442h22.725v96.03h1.095
			c5.203-7.486,10.952-14.714,16.154-21.168l63.52-74.862h27.927l-73.376,83.639L266.896,239.149z"/>
	</g>
	<g>
		<path d="M34.681,358.796h-8.337l-8.781-16.772l-2.812,3.798v12.975H7.499v-37.937h7.252v17.168h0.148
			c0.79-1.48,1.628-2.911,2.417-4.341l8.14-12.827h8.682l-11.445,16.23L34.681,358.796z"/>
		<path d="M65.46,339.359c0,13.221-6.709,19.979-16.131,19.979c-10.014,0-15.688-8.387-15.688-19.388
			c0-11.347,6.265-19.684,16.181-19.684C60.33,320.268,65.46,329.246,65.46,339.359z M41.288,339.803
			c0,7.449,2.911,13.566,8.288,13.566c5.427,0,8.238-6.067,8.238-13.714c0-6.956-2.614-13.418-8.189-13.418
			C43.902,326.237,41.288,332.848,41.288,339.803z"/>
		<path d="M105.021,358.796h-6.956l-0.69-14.75c-0.197-5.032-0.444-10.162-0.395-14.947h-0.148
			c-1.085,4.538-2.466,9.57-3.749,13.813l-4.637,15.342H82.92l-4.193-15.095c-1.233-4.292-2.417-9.423-3.305-14.06h-0.148
			c-0.099,4.785-0.345,10.408-0.592,15.095l-0.74,14.603h-6.66l2.565-37.937h9.028l4.095,14.257
			c1.233,4.588,2.318,9.028,3.157,13.369h0.148c0.888-4.242,2.022-8.83,3.305-13.369l4.292-14.257h8.978L105.021,358.796z"/>
		<path d="M135.848,343.06c0,11.1-5.279,16.279-13.862,16.279c-8.535,0-13.369-5.081-13.369-16.23v-22.298h7.301v22.939
			c0,6.659,2.516,9.57,6.265,9.57c3.946,0,6.364-2.813,6.364-9.57v-22.939h7.301V343.06z"/>
		<path d="M158.143,340.889c2.664,1.036,4.144,3.601,5.032,7.449c1.085,4.489,2.072,9.027,2.812,10.458h-7.499
			c-0.543-1.085-1.48-4.391-2.368-8.979c-0.986-4.884-2.516-6.413-5.969-6.413h-2.467v15.392h-7.252v-37.442
			c2.516-0.444,6.068-0.79,9.768-0.79c4.785,0,14.454,0.593,14.454,10.755c0,4.637-2.96,8.041-6.512,9.422V340.889z
			 M150.694,337.978c4.144,0,6.66-2.417,6.66-6.018c0-4.885-3.65-5.821-6.314-5.821c-1.628,0-2.763,0.099-3.354,0.296v11.543
			H150.694z"/>
		<path d="M197.951,339.359c0,13.221-6.709,19.979-16.131,19.979c-10.014,0-15.688-8.387-15.688-19.388
			c0-11.347,6.265-19.684,16.181-19.684C192.82,320.268,197.951,329.246,197.951,339.359z M173.778,339.803
			c0,7.449,2.911,13.566,8.288,13.566c5.427,0,8.238-6.067,8.238-13.714c0-6.956-2.614-13.418-8.189-13.418
			C176.393,326.237,173.778,332.848,173.778,339.803z"/>
		<path d="M247.249,328.013c-1.332-0.69-3.65-1.628-6.758-1.628c-3.848,0-5.575,2.072-5.575,4.193c0,2.713,1.875,3.946,6.512,6.067
			c6.068,2.714,8.781,6.216,8.781,11.199c0,6.61-4.982,11.444-13.813,11.444c-3.749,0-7.548-1.036-9.324-2.121l1.431-6.117
			c1.973,1.184,5.13,2.121,8.189,2.121c4.045,0,6.167-1.924,6.167-4.735c0-2.714-1.825-4.342-6.019-6.167
			c-5.722-2.467-9.274-6.019-9.274-10.951c0-6.216,4.884-11.001,13.073-11.001c3.601,0,6.364,0.839,8.14,1.727L247.249,328.013z"/>
		<path d="M278.917,320.859l-11.248,22.249v15.688h-7.301v-15.44l-10.754-22.496h8.14l3.75,9.324
			c1.085,2.713,1.973,5.081,2.861,7.695h0.099c0.74-2.516,1.677-4.982,2.762-7.745l3.651-9.274H278.917z"/>
		<path d="M298.4,328.013c-1.332-0.69-3.65-1.628-6.758-1.628c-3.848,0-5.575,2.072-5.575,4.193c0,2.713,1.875,3.946,6.512,6.067
			c6.068,2.714,8.781,6.216,8.781,11.199c0,6.61-4.982,11.444-13.813,11.444c-3.749,0-7.548-1.036-9.324-2.121l1.431-6.117
			c1.973,1.184,5.13,2.121,8.189,2.121c4.045,0,6.167-1.924,6.167-4.735c0-2.714-1.825-4.342-6.019-6.167
			c-5.722-2.467-9.274-6.019-9.274-10.951c0-6.216,4.884-11.001,13.073-11.001c3.601,0,6.364,0.839,8.14,1.727L298.4,328.013z"/>
		<path d="M327.158,327.174h-9.373v31.622h-7.301v-31.622h-9.324v-6.314h25.998V327.174z"/>
		<path d="M349.946,358.796h-21.213v-37.937h20.423v6.117h-13.122v9.176h12.382v5.97h-12.382v10.557h13.912V358.796z"/>
		<path d="M389.557,358.796h-6.956l-0.69-14.75c-0.197-5.032-0.444-10.162-0.395-14.947h-0.148
			c-1.085,4.538-2.466,9.57-3.749,13.813l-4.637,15.342h-5.525l-4.193-15.095c-1.233-4.292-2.417-9.423-3.305-14.06h-0.148
			c-0.099,4.785-0.345,10.408-0.592,15.095l-0.74,14.603h-6.66l2.565-37.937h9.028l4.095,14.257
			c1.233,4.588,2.318,9.028,3.157,13.369h0.148c0.888-4.242,2.022-8.83,3.305-13.369l4.292-14.257h8.978L389.557,358.796z"/>
	</g>
</g>
</svg>
