<?xml version="1.0" encoding="utf-8"?>
<!-- Generator: Adobe Illustrator 16.0.3, SVG Export Plug-In . SVG Version: 6.00 Build 0)  -->
<!DOCTYPE svg PUBLIC "-//W3C//DTD SVG 1.1//EN" "http://www.w3.org/Graphics/SVG/1.1/DTD/svg11.dtd">
<svg version="1.1" id="レイヤー_1" xmlns="http://www.w3.org/2000/svg" xmlns:xlink="http://www.w3.org/1999/xlink" x="0px"
	 y="0px" width="277.584px" height="277.965px" viewBox="61.756 0 277.584 277.965"
	 enable-background="new 61.756 0 277.584 277.965" xml:space="preserve">
<g>
	<g>
		<circle fill="#FFFFFF" stroke="#231815" stroke-width="31" stroke-miterlimit="10" cx="198.528" cy="139.303" r="112.996"/>
		<path d="M266.896,239.149h-26.832l-68.174-98.611l-19.439,21.426v77.186h-22.725V42.442h22.725v96.03h1.095
			c5.203-7.486,10.952-14.714,16.154-21.168l63.52-74.862h27.927l-73.375,83.639L266.896,239.149z"/>
	</g>
	<g>
		<path d="M34.681,358.795h-8.337l-8.781-16.771l-2.812,3.799v12.975H7.499V320.86h7.252v17.168h0.148
			c0.79-1.48,1.628-2.91,2.417-4.342l8.14-12.826h8.682l-11.445,16.23L34.681,358.795z"/>
		<path d="M65.46,339.36c0,13.221-6.709,19.979-16.131,19.979c-10.014,0-15.688-8.387-15.688-19.389
			c0-11.346,6.265-19.684,16.181-19.684C60.33,320.268,65.46,329.247,65.46,339.36z M41.288,339.803
			c0,7.449,2.911,13.566,8.288,13.566c5.427,0,8.238-6.068,8.238-13.715c0-6.955-2.614-13.418-8.189-13.418
			C43.902,326.237,41.288,332.848,41.288,339.803z"/>
		<path d="M105.021,358.795h-6.956l-0.69-14.75c-0.197-5.031-0.444-10.162-0.395-14.947h-0.148
			c-1.085,4.539-2.466,9.57-3.749,13.814l-4.637,15.342H82.92l-4.193-15.096c-1.233-4.291-2.417-9.422-3.305-14.061h-0.148
			c-0.099,4.785-0.345,10.408-0.592,15.096l-0.74,14.604h-6.66l2.565-37.938h9.028l4.095,14.258
			c1.233,4.588,2.318,9.027,3.157,13.369h0.148c0.888-4.242,2.022-8.83,3.305-13.369l4.292-14.258h8.978L105.021,358.795z"/>
		<path d="M135.848,343.059c0,11.102-5.279,16.279-13.862,16.279c-8.535,0-13.369-5.08-13.369-16.229v-22.299h7.301v22.939
			c0,6.658,2.516,9.57,6.265,9.57c3.946,0,6.364-2.814,6.364-9.57v-22.939h7.301V343.059z"/>
		<path d="M158.143,340.889c2.664,1.035,4.144,3.602,5.032,7.449c1.085,4.488,2.072,9.027,2.812,10.457h-7.499
			c-0.543-1.084-1.48-4.391-2.368-8.979c-0.986-4.885-2.516-6.412-5.969-6.412h-2.467v15.391h-7.252v-37.441
			c2.516-0.443,6.068-0.789,9.768-0.789c4.785,0,14.454,0.592,14.454,10.754c0,4.637-2.96,8.041-6.512,9.422L158.143,340.889
			L158.143,340.889z M150.694,337.977c4.144,0,6.66-2.416,6.66-6.018c0-4.885-3.65-5.82-6.314-5.82c-1.628,0-2.763,0.1-3.354,0.295
			v11.543H150.694L150.694,337.977z"/>
		<path d="M197.951,339.36c0,13.221-6.709,19.979-16.131,19.979c-10.014,0-15.688-8.387-15.688-19.389
			c0-11.346,6.265-19.684,16.181-19.684C192.82,320.268,197.951,329.247,197.951,339.36z M173.778,339.803
			c0,7.449,2.911,13.566,8.288,13.566c5.427,0,8.238-6.068,8.238-13.715c0-6.955-2.614-13.418-8.189-13.418
			C176.393,326.237,173.778,332.848,173.778,339.803z"/>
		<path d="M247.249,328.012c-1.332-0.689-3.649-1.627-6.758-1.627c-3.849,0-5.575,2.072-5.575,4.193
			c0,2.713,1.875,3.945,6.512,6.066c6.068,2.715,8.781,6.217,8.781,11.199c0,6.609-4.982,11.443-13.813,11.443
			c-3.75,0-7.549-1.035-9.324-2.121l1.431-6.117c1.974,1.186,5.13,2.121,8.188,2.121c4.045,0,6.168-1.924,6.168-4.734
			c0-2.715-1.825-4.342-6.02-6.168c-5.722-2.467-9.273-6.018-9.273-10.949c0-6.217,4.884-11.002,13.072-11.002
			c3.602,0,6.364,0.84,8.141,1.727L247.249,328.012z"/>
		<path d="M278.917,320.86l-11.248,22.248v15.688h-7.301v-15.439l-10.754-22.496h8.14l3.75,9.324
			c1.085,2.713,1.973,5.08,2.861,7.695h0.099c0.74-2.516,1.677-4.982,2.763-7.746l3.65-9.273H278.917L278.917,320.86z"/>
		<path d="M298.4,328.012c-1.332-0.689-3.65-1.627-6.758-1.627c-3.849,0-5.576,2.072-5.576,4.193c0,2.713,1.875,3.945,6.513,6.066
			c6.067,2.715,8.78,6.217,8.78,11.199c0,6.609-4.981,11.443-13.813,11.443c-3.749,0-7.548-1.035-9.324-2.121l1.432-6.117
			c1.973,1.186,5.13,2.121,8.188,2.121c4.046,0,6.167-1.924,6.167-4.734c0-2.715-1.824-4.342-6.019-6.168
			c-5.722-2.467-9.274-6.018-9.274-10.949c0-6.217,4.885-11.002,13.073-11.002c3.601,0,6.364,0.84,8.14,1.727L298.4,328.012z"/>
		<path d="M327.158,327.174h-9.373v31.621h-7.301v-31.621h-9.324v-6.314h25.998V327.174z"/>
		<path d="M349.946,358.795h-21.214V320.86h20.424v6.115h-13.122v9.178h12.382v5.969h-12.382v10.557h13.911L349.946,358.795
			L349.946,358.795z"/>
		<path d="M389.557,358.795h-6.955l-0.69-14.75c-0.197-5.031-0.444-10.162-0.396-14.947h-0.147
			c-1.085,4.539-2.466,9.57-3.749,13.814l-4.637,15.342h-5.525l-4.193-15.096c-1.232-4.291-2.416-9.422-3.305-14.061h-0.148
			c-0.099,4.785-0.345,10.408-0.592,15.096l-0.74,14.604h-6.66l2.565-37.938h9.028l4.095,14.258
			c1.233,4.588,2.318,9.027,3.157,13.369h0.148c0.888-4.242,2.021-8.83,3.305-13.369l4.292-14.258h8.978L389.557,358.795z"/>
	</g>
</g>
</svg>
